{"title":"Jakhalsdans (2010)","uid":10079289,"size":1268568767,"categoryP":"video","categoryS":"movies","magnet":"?xt=urn:btih:67891c7190fc0dc141d89666545458dbf582994b&amp;dn=Jakhalsdans+%282010%29&amp;tr=udp%3A%2F%2Ftracker.openbittorrent.com%3A80&amp;tr=udp%3A%2F%2Fopen.demonii.com%3A1337&amp;tr=udp%3A%2F%2Ftracker.coppersurfer.tk%3A6969&amp;tr=udp%3A%2F%2Fexodus.desync.com%3A6969","seeders":1,"leechers":0,"uploader":"freebme","files":-1,"time":1398970666,"description":"South African Movie\n\nThis South African movie is set in the small Karoo town of Loxton. A young mother arrives there for peace and quiet, and is shocked to discover that the local school will shortly be closing unless they can raise half a million Rand. She decides to hold a music concert to raise the money, and sets about recruiting artists to help. However her reclusive neighbour turns out to have a few surprises ... which may or may not help her greatly...\n\nGeneral\nComplete name                            : Jakhalsdans (2010)\nFormat                                   : MPEG-4\nFormat profile                           : Base Media / Version 2\nCodec ID                                 : mp42\nFile size                                : 1.18 GiB\nDuration                                 : 1h 35mn\nOverall bit rate mode                    : Variable\nOverall bit rate                         : 1 767 Kbps\nEncoded date                             : UTC 2012-07-28 02:26:18\nTagged date                              : UTC 2012-07-28 03:24:02\nWriting application                      : HandBrake 4877svn 2012072601\n\nVideo\n\nFormat                                   : AVC\nFormat/Info                              : Advanced Video Codec\nFormat profile                           : &lt;a class=&quot;__cf_email__&quot; href=&quot;/cdn-cgi/l/email-protection&quot; data-cfemail=&quot;c68ba7afa8868af5e8f7&quot;&gt;[email&amp;#160;protected]&lt;/a&gt;&lt;script cf-hash='f9e31' type=&quot;text/javascript&quot;&gt;\n/* &lt;![CDATA[ */!function(){try{var t=&quot;currentScript&quot;in document?document.currentScript:function(){for(var t=document.getElementsByTagName(&quot;script&quot;),e=t.length;e--;)if(t[e].getAttribute(&quot;cf-hash&quot;))return t[e]}();if(t&amp;&amp;t.previousSibling){var e,r,n,i,c=t.previousSibling,a=c.getAttribute(&quot;data-cfemail&quot;);if(a){for(e=&quot;&quot;,r=parseInt(a.substr(0,2),16),n=2;a.length-n;n+=2)i=parseInt(a.substr(n,2),16)^r,e+=String.fromCharCode(i);e=document.createTextNode(e),c.parentNode.replaceChild(e,c)}}}catch(u){}}();/* ]]&gt; */&lt;/script&gt;\nFormat settings, CABAC                   : Yes\nFormat settings, ReFrames                : 4 frames\nCodec ID                                 : avc1\nCodec ID/Info                            : Advanced Video Coding\nDuration                                 : 1h 35mn\nBit rate                                 : 1 602 Kbps\nWidth                                    : 800 pixels\nHeight                                   : 608 pixels\nDisplay aspect ratio                     : 4:3\nFrame rate mode                          : Constant\nFrame rate                               : 25.000 fps\nColor space                              : YUV\nChroma subsampling                       : 4:2:0\nBit depth                                : 8 bits\nScan type                                : Progressive\nBits/(Pixel*Frame)                       : 0.132\nStream size                              : 1.07 GiB (91%)\nWriting library                          : x264 core 125\nEncoded date                             : UTC 2012-07-28 02:26:18\nTagged date                              : UTC 2012-07-28 03:24:02\nColor primaries                          : BT.709\nTransfer characteristics                 : BT.709\nMatrix coefficients                      : BT.709\n\nAudio\n\nFormat                                   : AAC\nFormat/Info                              : Advanced Audio Codec\nFormat profile                           : LC\nCodec ID                                 : 40\nDuration                                 : 1h 35mn\nBit rate mode                            : Variable\nBit rate                                 : 160 Kbps\nMaximum bit rate                         : 209 Kbps\nChannel(s)                               : 2 channels\nChannel positions                        : Front: L R\nSampling rate                            : 48.0 KHz\nCompression mode                         : Lossy\nStream size                              : 110 MiB (9%)\nEncoded date                             : UTC 2012-07-28 02:26:18\nTagged date                              : UTC 2012-07-28 03:24:02\n\n","torrent":{"xt":"urn:btih:67891c7190fc0dc141d89666545458dbf582994b","amp;dn":"Jakhalsdans+%282010%29","amp;tr":["udp%3A%2F%2Ftracker.openbittorrent.com%3A80","udp%3A%2F%2Fopen.demonii.com%3A1337","udp%3A%2F%2Ftracker.coppersurfer.tk%3A6969","udp%3A%2F%2Fexodus.desync.com%3A6969"],"infoHash":"67891c7190fc0dc141d89666545458dbf582994b","infoHashBuffer":{"type":"Buffer","data":[103,137,28,113,144,252,13,193,65,216,150,102,84,84,88,219,245,130,153,75]},"announce":[],"urlList":[]}}